<svg xmlns="http://www.w3.org/2000/svg" xmlns:xlink="http://www.w3.org/1999/xlink" viewBox="0 0 430 430" width="430" height="430" preserveAspectRatio="xMidYMid meet" style="width: 100%; height: 100%; transform: translate3d(0px, 0px, 0px); content-visibility: visible;"><defs><clipPath id="__lottie_element_1981"><rect width="430" height="430" x="0" y="0"/></clipPath><clipPath id="__lottie_element_1983"><path d="M0,0 L430,0 L430,430 L0,430z"/></clipPath></defs><g clip-path="url(#__lottie_element_1981)"><g clip-path="url(#__lottie_element_1983)" transform="matrix(1,0,0,1,0,0)" opacity="1" style="display: block;"><g transform="matrix(0.7071067690849304,-0.7071067690849304,0.7071067690849304,0.7071067690849304,211.443603515625,204.69808959960938)" opacity="1" style="display: block;"><g opacity="1" transform="matrix(1,0,0,1,0,0)"><path stroke-linecap="round" stroke-linejoin="round" fill-opacity="0" class="secondary" stroke="rgb(8,168,138)" stroke-opacity="1" stroke-width="12" d=" M-35.37099838256836,25.871999740600586 C-35.37099838256836,25.871999740600586 112.8010025024414,25.569000244140625 112.8010025024414,25.569000244140625 C112.8010025024414,25.569000244140625 112.8010025024414,54.604000091552734 112.8010025024414,54.604000091552734 C112.8010025024414,54.604000091552734 144.2169952392578,54.604000091552734 144.2169952392578,54.604000091552734 C144.2169952392578,54.604000091552734 144.2169952392578,36.5629997253418 144.2169952392578,36.5629997253418 C144.2169952392578,36.5629997253418 175.63400268554688,36.5629997253418 175.63400268554688,36.5629997253418 C175.63400268554688,36.5629997253418 175.63400268554688,54.604000091552734 175.63400268554688,54.604000091552734 C175.63400268554688,54.604000091552734 207.05099487304688,54.604000091552734 207.05099487304688,54.604000091552734 C207.05099487304688,54.604000091552734 207.05099487304688,25.569000244140625 207.05099487304688,25.569000244140625 C207.05099487304688,25.569000244140625 220.02099609375,25.496999740600586 220.02099609375,25.496999740600586 C226.156005859375,25.496999740600586 231.1280059814453,20.52400016784668 231.1280059814453,14.388999938964844 C231.1280059814453,14.388999938964844 231.1280059814453,-0.17499999701976776 231.1280059814453,-0.17499999701976776 C231.1280059814453,-6.309999942779541 226.156005859375,-11.282999992370605 220.02099609375,-11.282999992370605 C220.02099609375,-11.282999992370605 -35.37099838256836,-10.907999992370605 -35.37099838256836,-10.907999992370605"/></g></g><g transform="matrix(0.7071067690849304,-0.7071067690849304,0.7071067690849304,0.7071067690849304,211.443603515625,204.69808959960938)" opacity="1" style="display: block;"><g opacity="1" transform="matrix(1,0,0,1,0,0)"><path stroke-linecap="round" stroke-linejoin="round" fill-opacity="0" class="primary" stroke="rgb(18,19,49)" stroke-opacity="1" stroke-width="12" d=" M-68.90599822998047,7.218999862670898 C-68.90599822998047,7.218999862670898 -68.90599822998047,7.218999862670898 -68.90599822998047,7.218999862670898 M-220.875,7.375 C-220.875,7.375 -220.875,7.25 -220.875,7.25 M-69.00199890136719,7.140999794006348 C-69.00199890136719,49.09400177001953 -103.01200103759766,83.10399627685547 -144.96499633789062,83.10399627685547 C-186.91799926757812,83.10399627685547 -220.927001953125,49.09400177001953 -220.927001953125,7.140999794006348 C-220.927001953125,-34.8120002746582 -186.91799926757812,-68.82099914550781 -144.96499633789062,-68.82099914550781 C-103.01200103759766,-68.82099914550781 -69.00199890136719,-34.8120002746582 -69.00199890136719,7.140999794006348z M-99.72200012207031,7.142000198364258 C-99.72200012207031,32.12900161743164 -119.97799682617188,52.3849983215332 -144.96499633789062,52.3849983215332 C-169.95199584960938,52.3849983215332 -190.20799255371094,32.12799835205078 -190.20799255371094,7.140999794006348 C-190.20799255371094,-17.84600067138672 -169.95199584960938,-38.10200119018555 -144.96499633789062,-38.10200119018555 C-119.97799682617188,-38.10200119018555 -99.72200012207031,-17.844999313354492 -99.72200012207031,7.142000198364258z M-75.927001953125,44.553001403808594 C-75.927001953125,44.553001403808594 -47.90700149536133,44.736000061035156 -47.90700149536133,44.736000061035156 C-40.98400115966797,44.736000061035156 -35.37099838256836,39.12200164794922 -35.37099838256836,32.19900131225586 C-35.37099838256836,32.19900131225586 -35.37099838256836,32.19900131225586 -35.37099838256836,32.19900131225586 C-35.37099838256836,32.19900131225586 -35.37099838256836,-17.236000061035156 -35.37099838256836,-17.236000061035156 C-35.37099838256836,-17.236000061035156 -35.37099838256836,-17.236000061035156 -35.37099838256836,-17.236000061035156 C-35.37099838256836,-24.159000396728516 -40.98400115966797,-29.77199935913086 -47.90700149536133,-29.77199935913086 C-47.90700149536133,-29.77199935913086 -75.927001953125,-29.95400047302246 -75.927001953125,-29.95400047302246"/></g><g opacity="1" transform="matrix(1,0,0,1,0,0)"><path stroke-linecap="round" stroke-linejoin="round" fill-opacity="0" class="primary" stroke="rgb(18,19,49)" stroke-opacity="1" stroke-width="12" d=" M-69.00199890136719,7.140999794006348 C-69.00199890136719,-34.8120002746582 -103.01200103759766,-68.82099914550781 -144.96499633789062,-68.82099914550781 C-186.91799926757812,-68.82099914550781 -220.927001953125,-34.8120002746582 -220.927001953125,7.140999794006348 C-220.927001953125,7.140999794006348 -220.927001953125,7.140999794006348 -220.927001953125,7.140999794006348"/></g></g><g transform="matrix(0.7071067690849304,-0.7071067690849304,0.7071067690849304,0.7071067690849304,211.443603515625,204.69808959960938)" opacity="1" style="display: none;"><g opacity="1" transform="matrix(1,0,0,1,0,0)"><path stroke-linecap="round" stroke-linejoin="round" fill-opacity="0" class="secondary" stroke="rgb(8,168,138)" stroke-opacity="1" stroke-width="12" d=" M-35.37099838256836,25.871999740600586 C-35.37099838256836,25.871999740600586 112.8010025024414,25.569000244140625 112.8010025024414,25.569000244140625 C112.8010025024414,25.569000244140625 112.8010025024414,54.604000091552734 112.8010025024414,54.604000091552734 C112.8010025024414,54.604000091552734 144.2169952392578,54.604000091552734 144.2169952392578,54.604000091552734 C144.2169952392578,54.604000091552734 144.2169952392578,36.5629997253418 144.2169952392578,36.5629997253418 C144.2169952392578,36.5629997253418 175.63400268554688,36.5629997253418 175.63400268554688,36.5629997253418 C175.63400268554688,36.5629997253418 175.63400268554688,54.604000091552734 175.63400268554688,54.604000091552734 C175.63400268554688,54.604000091552734 207.05099487304688,54.604000091552734 207.05099487304688,54.604000091552734 C207.05099487304688,54.604000091552734 207.05099487304688,25.569000244140625 207.05099487304688,25.569000244140625 C207.05099487304688,25.569000244140625 220.02099609375,25.496999740600586 220.02099609375,25.496999740600586 C226.156005859375,25.496999740600586 231.1280059814453,20.52400016784668 231.1280059814453,14.388999938964844 C231.1280059814453,14.388999938964844 231.1280059814453,-0.17499999701976776 231.1280059814453,-0.17499999701976776 C231.1280059814453,-6.309999942779541 226.156005859375,-11.282999992370605 220.02099609375,-11.282999992370605 C220.02099609375,-11.282999992370605 -35.37099838256836,-10.907999992370605 -35.37099838256836,-10.907999992370605"/></g></g><g transform="matrix(0.7071067690849304,-0.7071067690849304,0.7071067690849304,0.7071067690849304,211.443603515625,204.69808959960938)" opacity="1" style="display: none;"><g opacity="1" transform="matrix(1,0,0,1,0,0)"><path stroke-linecap="round" stroke-linejoin="round" fill-opacity="0" class="primary" stroke="rgb(18,19,49)" stroke-opacity="1" stroke-width="12" d=" M-68.90599822998047,7.218999862670898 C-68.90599822998047,7.218999862670898 -68.90599822998047,7.218999862670898 -68.90599822998047,7.218999862670898 M-220.875,7.375 C-220.875,7.375 -220.875,7.25 -220.875,7.25 M-69.00199890136719,7.142000198364258 C-69.00199890136719,-34.59199905395508 -103.01200103759766,-68.42500305175781 -144.96499633789062,-68.42500305175781 C-186.91799926757812,-68.42500305175781 -220.927001953125,-34.59199905395508 -220.927001953125,7.142000198364258 C-220.927001953125,48.875999450683594 -186.91799926757812,82.70800018310547 -144.96499633789062,82.70800018310547 C-103.01200103759766,82.70800018310547 -69.00199890136719,48.875999450683594 -69.00199890136719,7.142000198364258z M-99.72200012207031,7.142000198364258 C-99.72200012207031,-17.71500015258789 -119.97799682617188,-37.8650016784668 -144.96499633789062,-37.8650016784668 C-169.95199584960938,-37.8650016784668 -190.20799255371094,-17.71500015258789 -190.20799255371094,7.142000198364258 C-190.20799255371094,31.999000549316406 -169.95199584960938,52.14799880981445 -144.96499633789062,52.14799880981445 C-119.97799682617188,52.14799880981445 -99.72200012207031,31.999000549316406 -99.72200012207031,7.142000198364258z M-69.00199890136719,7.142000198364258 C-69.00199890136719,-34.59199905395508 -103.01200103759766,-68.42500305175781 -144.96499633789062,-68.42500305175781 C-186.91799926757812,-68.42500305175781 -220.927001953125,-34.59199905395508 -220.927001953125,7.142000198364258 C-220.927001953125,48.875999450683594 -186.91799926757812,82.70800018310547 -144.96499633789062,82.70800018310547 C-103.01200103759766,82.70800018310547 -69.00199890136719,48.875999450683594 -69.00199890136719,7.142000198364258z M-99.72200012207031,7.142000198364258 C-99.72200012207031,-17.71500015258789 -119.97799682617188,-37.8650016784668 -144.96499633789062,-37.8650016784668 C-169.95199584960938,-37.8650016784668 -190.20799255371094,-17.71500015258789 -190.20799255371094,7.142000198364258 C-190.20799255371094,31.999000549316406 -169.95199584960938,52.14799880981445 -144.96499633789062,52.14799880981445 C-119.97799682617188,52.14799880981445 -99.72200012207031,31.999000549316406 -99.72200012207031,7.142000198364258z M-75.927001953125,44.553001403808594 C-75.927001953125,44.553001403808594 -47.90700149536133,44.736000061035156 -47.90700149536133,44.736000061035156 C-40.98400115966797,44.736000061035156 -35.37099838256836,39.12200164794922 -35.37099838256836,32.19900131225586 C-35.37099838256836,32.19900131225586 -35.37099838256836,32.19900131225586 -35.37099838256836,32.19900131225586 C-35.37099838256836,32.19900131225586 -35.37099838256836,-17.236000061035156 -35.37099838256836,-17.236000061035156 C-35.37099838256836,-17.236000061035156 -35.37099838256836,-17.236000061035156 -35.37099838256836,-17.236000061035156 C-35.37099838256836,-24.159000396728516 -40.98400115966797,-29.77199935913086 -47.90700149536133,-29.77199935913086 C-47.90700149536133,-29.77199935913086 -75.927001953125,-29.95400047302246 -75.927001953125,-29.95400047302246"/></g></g><g transform="matrix(0.7071067690849304,-0.7071067690849304,-0.7071067690849304,-0.7071067690849304,221.54391479492188,216.44540405273438)" opacity="1" style="display: none;"><g opacity="1" transform="matrix(1,0,0,1,0,0)"><path stroke-linecap="round" stroke-linejoin="round" fill-opacity="0" class="secondary" stroke="rgb(8,168,138)" stroke-opacity="1" stroke-width="12" d=" M-37.61587142944336,20.989452362060547 C-37.61587142944336,20.989452362060547 112.9289321899414,20.49954605102539 112.9289321899414,20.49954605102539 C112.9289321899414,20.49954605102539 112.9289321899414,20.517126083374023 112.9289321899414,20.517126083374023 C112.9289321899414,20.517126083374023 144.34593200683594,20.517126083374023 144.34593200683594,20.517126083374023 C144.34593200683594,20.517126083374023 144.34593200683594,20.506067276000977 144.34593200683594,20.506067276000977 C144.34593200683594,20.506067276000977 175.762939453125,20.506067276000977 175.762939453125,20.506067276000977 C175.762939453125,20.506067276000977 175.762939453125,20.517126083374023 175.762939453125,20.517126083374023 C175.762939453125,20.517126083374023 207.17893981933594,20.517126083374023 207.17893981933594,20.517126083374023 C207.17893981933594,20.517126083374023 207.17893981933594,20.49954605102539 207.17893981933594,20.49954605102539 C207.17893981933594,20.49954605102539 220.14993286132812,20.499509811401367 220.14993286132812,20.499509811401367 C226.28494262695312,20.499509811401367 231.1320037841797,16.52600860595703 231.1320037841797,10.391008377075195 C231.1320037841797,10.391008377075195 231.25694274902344,6.321735858917236 231.25694274902344,6.321735858917236 C231.25694274902344,0.18673601746559143 226.283935546875,-4.786263942718506 220.14993286132812,-4.786263942718506 C220.14993286132812,-4.786263942718506 -37.61587142944336,-4.296321868896484 -37.61587142944336,-4.296321868896484"/></g></g><g transform="matrix(0.7071067690849304,-0.7071067690849304,-0.7071067690849304,-0.7071067690849304,221.54391479492188,216.44540405273438)" opacity="1" style="display: none;"><g opacity="1" transform="matrix(1,0,0,1,0,0)"><path stroke-linecap="round" stroke-linejoin="round" fill-opacity="0" class="primary" stroke="rgb(18,19,49)" stroke-opacity="1" stroke-width="12" d=" M-68.90599822998047,-4.875 C-68.90599822998047,-4.875 -68.90599822998047,20 -68.90599822998047,20 M-220.875,-4.875 C-220.875,-4.875 -220.875,20 -220.875,20 M-99.94599914550781,-4.960999965667725 C-99.94599914550781,-4.895999908447266 -120.2020034790039,-4.8429999351501465 -145.18899536132812,-4.8429999351501465 C-170.17599487304688,-4.8429999351501465 -190.4320068359375,-4.895999908447266 -190.4320068359375,-4.960999965667725 C-190.4320068359375,-5.026000022888184 -170.17599487304688,-5.078999996185303 -145.18899536132812,-5.078999996185303 C-120.2020034790039,-5.078999996185303 -99.94599914550781,-5.026000022888184 -99.94599914550781,-4.960999965667725z M-76.0510025024414,20.05299949645996 C-76.0510025024414,20.05299949645996 -48.029998779296875,20.236000061035156 -48.029998779296875,20.236000061035156 C-41.106998443603516,20.236000061035156 -35.49399948120117,14.621999740600586 -35.49399948120117,7.698999881744385 C-35.49399948120117,7.698999881744385 -35.49399948120117,7.698999881744385 -35.49399948120117,7.698999881744385 C-35.49399948120117,7.698999881744385 -35.698001861572266,7.7220001220703125 -35.698001861572266,7.7220001220703125 C-35.698001861572266,7.7220001220703125 -35.698001861572266,7.7220001220703125 -35.698001861572266,7.7220001220703125 C-35.698001861572266,0.7990000247955322 -41.31100082397461,-4.814000129699707 -48.23400115966797,-4.814000129699707 C-48.23400115966797,-4.814000129699707 -76.25399780273438,-4.995999813079834 -76.25399780273438,-4.995999813079834"/></g><g opacity="1" transform="matrix(1,0,0,1,0,0)"><path stroke-linecap="round" stroke-linejoin="round" fill-opacity="0" class="primary" stroke="rgb(18,19,49)" stroke-opacity="1" stroke-width="12" d=" M-68.9739990234375,-4.857999801635742 C-68.9739990234375,-4.748000144958496 -102.98300170898438,-4.659999847412109 -144.93600463867188,-4.659999847412109 C-186.88900756835938,-4.659999847412109 -220.8990020751953,-4.748000144958496 -220.8990020751953,-4.857999801635742 C-220.8990020751953,-4.9679999351501465 -186.88900756835938,-5.057000160217285 -144.93600463867188,-5.057000160217285 C-102.98300170898438,-5.057000160217285 -68.9739990234375,-4.9679999351501465 -68.9739990234375,-4.857999801635742z"/></g><g opacity="1" transform="matrix(1,0,0,1,0,0)"><path stroke-linecap="round" stroke-linejoin="round" fill-opacity="0" class="primary" stroke="rgb(18,19,49)" stroke-opacity="1" stroke-width="12" d=" M-68.87300109863281,20.142000198364258 C-68.87300109863281,20.031999588012695 -102.88200378417969,19.94300079345703 -144.8350067138672,19.94300079345703 C-186.78799438476562,19.94300079345703 -220.7969970703125,20.031999588012695 -220.79800415039062,20.142000198364258"/></g></g></g></g></svg>